<?xml version="1.0" encoding="UTF-8"?>
<svg width="32px" height="32px" viewBox="0 0 32 32" version="1.1" xmlns="http://www.w3.org/2000/svg">
    <g stroke="none" stroke-width="1" fill="none" fill-rule="evenodd">
        <path d="M16,28.5 C15.5,28.5 15,28.3 14.6,28 L4.3,18.7 C1.5,15.9 1.5,11.5 4.3,8.7 C7.1,5.9 11.5,5.9 14.3,8.7 L16,10.4 L17.7,8.7 C20.5,5.9 24.9,5.9 27.7,8.7 C30.5,11.5 30.5,15.9 27.7,18.7 L17.4,28 C17,28.3 16.5,28.5 16,28.5 Z" fill="#FF6B6B" fill-rule="nonzero"/>
        <path d="M16,26.5 C15.7,26.5 15.4,26.4 15.2,26.2 L6.3,17.3 C4.3,15.3 4.3,12.1 6.3,10.1 C8.3,8.1 11.5,8.1 13.5,10.1 L16,12.6 L18.5,10.1 C20.5,8.1 23.7,8.1 25.7,10.1 C27.7,12.1 27.7,15.3 25.7,17.3 L16.8,26.2 C16.6,26.4 16.3,26.5 16,26.5 Z" fill="#FFFFFF" fill-rule="nonzero"/>
    </g>
</svg> 